<?xml version="1.0" encoding="UTF-8"?>
<svg id="Layer_2" data-name="Layer 2" xmlns="http://www.w3.org/2000/svg" viewBox="0 0 36.572 31.623">
  <defs>
    <style>
      .cls-1 {
        fill: #fff;
      }
    </style>
  </defs>
  <g id="page1">
    <path class="cls-1" d="m35.615,14.418L20.161.712c-1.07-.949-2.681-.949-3.751,0L.957,14.418c-1.946,1.725-.725,4.941,1.875,4.941h.694v8.758c0,1.937,1.57,3.507,3.507,3.507h7.482c.594,0,1.076-.482,1.076-1.076v-6.383c0-.799.647-1.446,1.446-1.446h2.498c.799,0,1.446.647,1.446,1.446v6.383c0,.594.482,1.076,1.076,1.076h7.482c1.937,0,3.507-1.57,3.507-3.507v-8.758h.694c2.6,0,3.821-3.215,1.875-4.941Z"/>
  </g>
</svg>